<svg xmlns="http://www.w3.org/2000/svg" data-name="Layer 1" width="532.4852294921875" height="389.3516845703125" style=""><rect id="backgroundrect" width="100%" height="100%" x="0" y="0" fill="none" stroke="none"/><g class="currentLayer" style=""><title>Layer 1</title><path d="M323.8697047460937,184.24731754394531 a6.51369,6.51369 0 0 1 -6.48976,-6.0878 l-0.9666000000000001,-14.75858 a6.51365,6.51365 0 0 1 6.07385,-6.92548 l115.62688,-7.57232 a13.90881,13.90881 0 0 1 1.81772,27.75816 l-115.62662,7.57183 Q324.0868247460937,184.2470775439453 323.8697047460937,184.24731754394531 z" fill="#bbb7ff" id="svg_1" class="" fill-opacity="1"/><path d="M346.66961474609377,186.15018754394532 a6.52191,6.52191 0 0 1 -6.50615,-6.2708 l-0.8240000000000001,-22.04369 a6.513,6.513 0 0 1 6.26591,-6.7517700000000005 l95.08311,-3.55375 a6.51385,6.51385 0 0 1 6.75226,6.26591 l0.8240000000000001,22.04369 a6.513,6.513 0 0 1 -6.2659,6.7517700000000005 l-95.08311,3.55375 C346.8335047460937,186.14871754394534 346.7510647460938,186.15018754394532 346.66961474609377,186.15018754394532 z" fill="#ffffff" id="svg_2" class="" fill-opacity="1"/><path d="M458.09171474609377,389.3517075439453 H443.30132474609377 a6.52087,6.52087 0 0 1 -6.51349,-6.51349 V259.56885754394534 a6.52087,6.52087 0 0 1 6.51349,-6.5134799999999995 H458.09171474609377 a6.52087,6.52087 0 0 1 6.51349,6.5134799999999995 V382.83821754394535 A6.52087,6.52087 0 0 1 458.09171474609377,389.3517075439453 z" fill="#e6e6e6" id="svg_3" class="" fill-opacity="1"/><path d="M420.95691474609373,389.3517075439453 H406.1665247460937 a6.52087,6.52087 0 0 1 -6.51349,-6.51349 V259.56885754394534 a6.52087,6.52087 0 0 1 6.51349,-6.5134799999999995 H420.95691474609373 a6.52087,6.52087 0 0 1 6.51349,6.5134799999999995 V382.83821754394535 A6.52087,6.52087 0 0 1 420.95691474609373,389.3517075439453 z" fill="#e6e6e6" id="svg_4" class="" fill-opacity="1"/><circle cx="435.6282653808594" cy="73.30445098876953" r="51.10581970214844" fill="#bbb7ff" id="svg_5" class="" fill-opacity="1"/><path d="M407.96501474609374,90.75377754394532 a12.12059,12.12059 0 0 1 -4.42606,-2.59809 a8.15037,8.15037 0 0 1 -2.3824300000000003,-6.45236 a5.48293,5.48293 0 0 1 2.43759,-4.21982 c1.82759,-1.17234 4.27192,-1.1758 6.76064,-0.07900000000000001 l-0.09421000000000003,-19.951 l2.004,-0.009550000000000003 l0.11086000000000001,23.4545 l-1.5442,-0.9713499999999999 c-1.7906400000000002,-1.12447 -4.34788,-1.916 -6.15482,-0.7566000000000002 a3.521,3.521 0 0 0 -1.5247000000000002,2.72455 a6.15892,6.15892 0 0 0 1.77145,4.81091 c2.213,2.1139200000000002 5.44168,2.775 9.12357,3.3657500000000002 l-0.31763,1.97862 A33.03108,33.03108 0 0 1 407.96501474609374,90.75377754394532 z" fill="#2f2e41" id="svg_6"/><rect x="727.575927734375" y="308.0725402832031" width="2.0039000511169434" height="10.79401969909668" transform="matrix(0.13093,-0.99139,0.99139,0.13093,-11.34164,739.40982) " fill="#2f2e41" id="svg_7"/><rect x="774.9454345703125" y="1089.304443359375" width="2.0039000511169434" height="10.79401969909668" transform="rotate(-82.47679901123047 13.592080116271902,776.7722167968749) " fill="#2f2e41" id="svg_8"/><path d="M392.12342474609375,292.6421775439453 h-0.00009000000000000003 a8.52716,8.52716 0 0 1 -8.51764,-8.51764 s13.57921,-73.67742 21.339,-116.86035 a36.37333,36.37333 0 0 1 35.79926,-29.94363 h0.00007000000000000003 a46.07539,46.07539 0 0 1 46.07539,46.07539 v14.55024 A94.696,94.696 0 0 1 392.12342474609375,292.6421775439453 z" fill="#ffffff" id="svg_9" class="" fill-opacity="1"/><path d="M456.6012547460938,285.26656754394526 a6.52391,6.52391 0 0 1 -5.98009,3.80507 l-14.78976,-0.12843000000000002 a6.51295,6.51295 0 0 1 -6.45648,-6.56975 l1.00467,-115.87 a13.90824,13.90824 0 1 1 27.81543,0.24117 l-1.00412,115.87 A6.47722,6.47722 0 0 1 456.6012547460938,285.26656754394526 z" fill="#bbb7ff" id="svg_10" class="" fill-opacity="1"/><path d="M463.1348747460937,254.3342975439453 a6.52358,6.52358 0 0 1 -5.98,3.80485 l-25.26174,-0.21914000000000003 a6.5209,6.5209 0 0 1 -6.45648,-6.5697600000000005 l0.8251200000000001,-95.1459 a6.51295,6.51295 0 0 1 6.56963,-6.45681 l25.2613,0.21894000000000005 a6.51295,6.51295 0 0 1 6.45649,6.56975 l-0.8246800000000001,95.14611 A6.48519,6.48519 0 0 1 463.1348747460937,254.3342975439453 z" fill="#ffffff" id="svg_11" class="" fill-opacity="1"/><path d="M420.8769147460938,43.18990754394531 c-7.9642,1.35175 -16.856090000000002,2.89733 -24.44478,-0.79571 c-5.97328,-2.9069000000000003 -10.08009,-8.71259 -8.62518,-15.53409 c2.89548,-13.57569 18.43743,-19.57763 30.92767,-18.3664 a33.17835,33.17835 0 0 1 19.63021,8.85084 a1.81749,1.81749 0 0 0 3.06741,-1.2705600000000001 c-0.05315000000000002,-5.00947 3.69455,-9.18969 8.13532,-11.0767 c5.5600000000000005,-2.36261 12.02054,-1.5183200000000001 17.73484,-0.254 a78.74679,78.74679 0 0 1 60.83363,65.858 a77.868,77.868 0 0 1 -2.5009,33.35023 c-3.03124,9.95948 -8.63018,19.96974 -17.84813,25.38834 c-8.306470000000001,4.8828000000000005 -20.38476,6.14019 -28.04987,-0.7102200000000001 c-6.13981,-5.48723 -8.90734,-15.74534 -3.87,-22.84427 a14.06282,14.06282 0 0 1 13.23124,-5.72048 a12.59183,12.59183 0 0 1 10.15717,9.0336 a12.34855,12.34855 0 0 1 -4.28719,12.17557 a11.98985,11.98985 0 0 1 -17.08764,-3.2621 c-1.22071,-1.95857 -4.331,-0.15647000000000003 -3.103,1.8138 a15.91988,15.91988 0 0 0 13.08837,7.3416500000000005 a14.71593,14.71593 0 0 0 12.954180000000001,-7.25451 A15.35938,15.35938 0 0 0 501.2746147460938,104.55185754394529 a16.45392,16.45392 0 0 0 -13.71557,-8.21305 a17.88422,17.88422 0 0 0 -14.795,7.63283 a19.00308,19.00308 0 0 0 -2.76852,13.93458 a23.0561,23.0561 0 0 0 6.77554,12.87447 a23.81222,23.81222 0 0 0 15.10181,6.14228 c12.18476,0.6949400000000002 23.06255,-6.32472 29.78312,-16.08243 c6.97354,-10.125 10.092,-22.83033 10.72046,-34.97715 a82.43531,82.43531 0 0 0 -27.72525,-66.01717 a83.76892,83.76892 0 0 0 -30.40919,-16.9906 c-11.10146,-3.40065 -26.60128,-5.87948 -34.098,5.46345 a13.81219,13.81219 0 0 0 -2.30549,7.755 l3.06741,-1.2705600000000001 c-10.84666,-10.365 -27.89773,-12.98409 -41.44177,-6.61282 c-6.8027,3.20007 -12.70035,9.15063 -14.81478,16.48759 c-2.19389,7.61272 0.97872,15.08455 7.48524,19.402 c8.855,5.87575 19.83684,4.24871 29.6976,2.57506 c2.27529,-0.3861800000000001 1.31047,-3.8498900000000003 -0.9553400000000001,-3.46532 z" fill="#ffffff" id="svg_12" class="" fill-opacity="1"/><path d="M308.49999474609376,264.0836075439453 h-291 a17.52,17.52 0 0 1 -17.5,-17.5 v-174 a17.52,17.52 0 0 1 17.5,-17.5 h291 a17.52,17.52 0 0 1 17.5,17.5 v174 A17.52,17.52 0 0 1 308.49999474609376,264.0836075439453 zm-291,-206 a14.51669,14.51669 0 0 0 -14.5,14.5 v174 a14.51669,14.51669 0 0 0 14.5,14.5 h291 a14.51669,14.51669 0 0 0 14.5,-14.5 v-174 a14.5167,14.5167 0 0 0 -14.5,-14.5 z" fill="#ffffff" id="svg_13" class="" fill-opacity="1"/><path d="M56.49999474609376,96.08360754394533 a12.5,12.5 0 1 1 12.5,-12.5 A12.51408,12.51408 0 0 1 56.49999474609376,96.08360754394533 zm0,-22 a9.5,9.5 0 1 0 9.5,9.5 A9.5108,9.5108 0 0 0 56.49999474609376,74.08360754394533 z" fill="#ffffff" id="svg_14" class="" fill-opacity="1"/><path d="M267.49999474609376,96.08360754394533 a12.5,12.5 0 1 1 12.5,-12.5 A12.51408,12.51408 0 0 1 267.49999474609376,96.08360754394533 zm0,-22 a9.5,9.5 0 1 0 9.5,9.5 A9.5108,9.5108 0 0 0 267.49999474609376,74.08360754394533 z" fill="#ffffff" id="svg_15" class="" fill-opacity="1"/><path d="M85.99999474609376,172.08360754394533 h-54 a8.51012,8.51012 0 0 1 -8.5,-8.5 v-32 a8.51013,8.51013 0 0 1 8.5,-8.5 h54 a8.51014,8.51014 0 0 1 8.5,8.5 v32 A8.51013,8.51013 0 0 1 85.99999474609376,172.08360754394533 z" fill="#e6e6e6" id="svg_16"/><path d="M189.99999474609376,172.08360754394533 h-54 a8.51012,8.51012 0 0 1 -8.5,-8.5 v-32 a8.51013,8.51013 0 0 1 8.5,-8.5 h54 a8.51014,8.51014 0 0 1 8.5,8.5 v32 A8.51013,8.51013 0 0 1 189.99999474609376,172.08360754394533 z" fill="#e6e6e6" id="svg_17"/><path d="M239.99999474609376,124.08360754394533 a7.5082,7.5082 0 0 0 -7.5,7.5 v32 a7.50819,7.50819 0 0 0 7.5,7.5 h54 a7.5082,7.5082 0 0 0 7.5,-7.5 v-32 a7.5082,7.5082 0 0 0 -7.5,-7.5 z" fill="#e6e6e6" id="svg_18" class=""/><path d="M86.49999474609376,236.08360754394533 h-54 a8.51012,8.51012 0 0 1 -8.5,-8.5 v-32 a8.51013,8.51013 0 0 1 8.5,-8.5 h54 a8.51014,8.51014 0 0 1 8.5,8.5 v32 A8.51013,8.51013 0 0 1 86.49999474609376,236.08360754394533 z" fill="#e6e6e6" id="svg_19"/><path d="M190.49999474609376,236.08360754394533 h-54 a8.51012,8.51012 0 0 1 -8.5,-8.5 v-32 a8.51013,8.51013 0 0 1 8.5,-8.5 h54 a8.51014,8.51014 0 0 1 8.5,8.5 v32 A8.51013,8.51013 0 0 1 190.49999474609376,236.08360754394533 z" fill="#e6e6e6" id="svg_20"/><path d="M294.49999474609376,236.08360754394533 h-54 a8.51012,8.51012 0 0 1 -8.5,-8.5 v-32 a8.51013,8.51013 0 0 1 8.5,-8.5 h54 a8.51014,8.51014 0 0 1 8.5,8.5 v32 A8.51013,8.51013 0 0 1 294.49999474609376,236.08360754394533 z" fill="#e6e6e6" id="svg_21"/><path d="M56.49999474609376,87.08360754394533 a3.5042400000000002,3.5042400000000002 0 0 1 -3.5,-3.5 v-50 a3.5,3.5 0 0 1 7,0 v50 A3.50425,3.50425 0 0 1 56.49999474609376,87.08360754394533 z" fill="#ffffff" id="svg_22" class="" fill-opacity="1"/><path d="M267.49999474609376,87.08360754394533 a3.5042400000000002,3.5042400000000002 0 0 1 -3.5,-3.5 v-50 a3.5,3.5 0 0 1 7,0 v50 A3.50425,3.50425 0 0 1 267.49999474609376,87.08360754394533 z" fill="#ffffff" id="svg_23" class="" fill-opacity="1"/><path id="b5e0804e-c461-433c-b77b-73087ef71cb0" data-name="Path 395" d="M56.95868474609375,160.55485754394533 a6.78778,6.78778 0 0 1 -4.08354,-1.35714 l-0.07300000000000001,-0.05479000000000001 l-15.38069,-11.765740000000001 a6.83507,6.83507 0 0 1 8.31719,-10.84883 l9.96238,7.63962 L79.24261474609375,113.4552875439453 a6.83219,6.83219 0 0 1 9.579,-1.26526 l0.0020000000000000005,0.0014800000000000004 l-0.1461,0.20287 l0.15006000000000003,-0.20287 a6.84044,6.84044 0 0 1 1.2637800000000001,9.581 l-27.69011,36.1087 a6.83631,6.83631 0 0 1 -5.43658,2.66555 z" fill="#198754" class="" fill-opacity="1"/><path id="b3a0cc8c-ec19-4bca-9f18-6cf478ced8d1" data-name="Path 395" d="M163.95868474609375,223.55485754394533 a6.78778,6.78778 0 0 1 -4.08354,-1.35714 l-0.07300000000000001,-0.05479000000000001 l-15.38069,-11.765740000000001 a6.83507,6.83507 0 0 1 8.31719,-10.84883 l9.96238,7.63962 L186.24261474609375,176.4552875439453 a6.83219,6.83219 0 0 1 9.579,-1.26526 l0.0020000000000000005,0.0014800000000000004 l-0.1461,0.20287 l0.15006000000000003,-0.20287 a6.84044,6.84044 0 0 1 1.2637800000000001,9.581 l-27.69011,36.1087 a6.83631,6.83631 0 0 1 -5.43658,2.66555 z" fill="#198754" class="" fill-opacity="1"/><path id="b29a902b-cd84-4f58-97ad-17c408cf2b06" data-name="Path 395" d="M264.9586847460937,160.55485754394533 a6.78778,6.78778 0 0 1 -4.08354,-1.35714 l-0.07300000000000001,-0.05479000000000001 l-15.38069,-11.765740000000001 a6.83507,6.83507 0 0 1 8.31719,-10.84883 l9.96238,7.63962 L287.24261474609375,113.4552875439453 a6.83219,6.83219 0 0 1 9.579,-1.26526 l0.0020000000000000005,0.0014800000000000004 l-0.1461,0.20287 l0.15006000000000003,-0.20287 a6.84044,6.84044 0 0 1 1.2637800000000001,9.581 l-27.69011,36.1087 a6.83631,6.83631 0 0 1 -5.43658,2.66555 z" fill="#198754" class="" fill-opacity="1"/></g></svg>